{"title":"Ong Bak(2003)DvDrip(thai+eng subs)","uid":5810656,"size":734587955,"categoryP":"video","categoryS":"other","magnet":"?xt=urn:btih:0cb1544e6f3276e194e18833a0a1802990c029e2&amp;dn=Ong+Bak%282003%29DvDrip%28thai%2Beng+subs%29&amp;tr=udp%3A%2F%2Ftracker.openbittorrent.com%3A80&amp;tr=udp%3A%2F%2Fopen.demonii.com%3A1337&amp;tr=udp%3A%2F%2Ftracker.coppersurfer.tk%3A6969&amp;tr=udp%3A%2F%2Fexodus.desync.com%3A6969","seeders":18,"leechers":1,"uploader":"kuttunni","files":5,"time":1283614542,"description":"Duration: 01:44:01.08, start: 0.000000, bitrate: 940 kb/s\nStream #0.0: Video: mpeg4, yuv420p, 608x336 [PAR 1:1 DAR 38:21], 25.00 tb(r)\nStream #0.1: Audio: mp3, 48000 Hz, stereo, s16, 32 kb/s","torrent":{"xt":"urn:btih:0cb1544e6f3276e194e18833a0a1802990c029e2","amp;dn":"Ong+Bak%282003%29DvDrip%28thai%2Beng+subs%29","amp;tr":["udp%3A%2F%2Ftracker.openbittorrent.com%3A80","udp%3A%2F%2Fopen.demonii.com%3A1337","udp%3A%2F%2Ftracker.coppersurfer.tk%3A6969","udp%3A%2F%2Fexodus.desync.com%3A6969"],"infoHash":"0cb1544e6f3276e194e18833a0a1802990c029e2","infoHashBuffer":{"type":"Buffer","data":[12,177,84,78,111,50,118,225,148,225,136,51,160,161,128,41,144,192,41,226]},"announce":[],"urlList":[]}}